<svg width="41" height="40" viewBox="0 0 500 500" fill="none" xmlns="http://www.w3.org/2000/svg">
<path fill-rule="evenodd" clip-rule="evenodd" d="M202.73 0.727352C187.454 1.95311 174.462 4.65381 164.825 8.6073C162.926 9.38644 160.863 10.0237 160.241 10.0237C159.096 10.0237 156.795 11.0776 147.829 15.7112C145.095 17.1246 142.511 18.2805 142.089 18.2805C141.666 18.2805 139.596 19.4627 137.49 20.9077C135.382 22.3526 133.382 23.5348 133.045 23.5348C132.706 23.5348 130.339 25.0548 127.782 26.9126C125.226 28.7704 122.779 30.2904 122.345 30.2904C121.911 30.2904 119.506 32.0633 117 34.2311C114.495 36.3989 110.869 39.2407 108.943 40.5475C107.016 41.8543 103.826 44.5835 101.852 46.614C99.8787 48.6436 95.9741 52.3037 93.1758 54.7469C90.3774 57.1902 85.2407 62.5668 81.7613 66.6952C78.2813 70.8236 72.871 76.9854 69.738 80.3887C57.7479 93.4111 39.9371 119.344 30.4263 137.628C27.527 143.202 23.2694 151.369 20.9648 155.777C18.6602 160.187 16.0049 166.098 15.0645 168.913C14.1234 171.73 12.4872 175.775 11.4267 177.906C10.3669 180.035 8.83253 184.316 8.01595 187.418C7.19936 190.521 5.89335 194.709 5.11288 196.726C4.33167 198.743 3.44951 202.062 3.15103 204.102C2.85328 206.142 1.99398 209.637 1.24225 211.869C-0.557481 217.213 -0.508887 217.6 2.09637 218.699C3.93221 219.473 5.43199 219.412 10.756 218.344C14.2972 217.633 19.2344 216.764 21.7269 216.41C24.2201 216.057 28.8632 215.275 32.0448 214.672C35.2271 214.07 41.1473 213.001 45.2007 212.298C49.2542 211.595 55.058 210.522 58.098 209.915C61.1381 209.307 65.4495 208.535 67.6789 208.197C79.1244 206.47 110.928 200.586 114.254 199.58C118.335 198.346 121.479 195.91 121.48 193.982C121.481 190.233 133.723 170.039 143.127 158.27C150.256 149.347 167.437 130.807 171.014 128.176C173.157 126.6 176.544 123.839 178.54 122.042C180.536 120.244 183.35 118.271 184.795 117.657C186.238 117.042 188.087 115.922 188.903 115.167C191.911 112.385 207.278 105.482 214.34 103.74C226.008 100.862 228.441 100.555 239.397 100.576C251.831 100.6 262.053 102.2 272.462 105.752C275.447 106.771 278.259 107.604 278.712 107.604C279.518 107.604 290.657 112.784 303.884 119.31C317.238 125.897 348.681 148.616 350.853 153.244C351.723 155.098 352.208 155.286 356.64 155.487C359.55 155.618 365.716 154.931 372.11 153.761C377.957 152.692 384.566 151.52 386.795 151.157C389.025 150.794 395.823 149.605 401.904 148.515C407.984 147.424 415.82 146.054 419.317 145.469C422.814 144.885 426.131 144.237 426.687 144.029C427.243 143.821 429.854 143.329 432.489 142.937C448.83 140.503 456.809 138.194 456.809 135.897C456.809 135.454 453.742 131.811 449.992 127.804C446.242 123.795 441.185 118.371 438.752 115.749C432.271 108.761 408.053 86.6623 400.798 81.1138C385.16 69.1542 360.405 51.5914 350.415 45.3673C340.851 39.4096 304.86 20.5324 303.064 20.5324C302.385 20.5324 298.635 19.0416 294.731 17.2191C290.828 15.3966 285.501 13.343 282.895 12.6546C280.288 11.9671 277.311 10.9673 276.279 10.4336C275.248 9.8999 272.083 8.89257 269.246 8.19525C266.408 7.49793 262.76 6.44629 261.139 5.85856C259.517 5.27083 256.035 4.43014 253.4 3.98953C250.766 3.54892 246.786 2.88089 244.556 2.50333C240.487 1.81577 227.39 0.544948 219.13 0.0375318C216.698 -0.111841 209.318 0.198168 202.73 0.727352ZM482.604 276.899C477.943 277.883 473.323 278.701 472.339 278.716C471.354 278.731 469.53 279.069 468.285 279.466C467.04 279.863 462.539 280.749 458.283 281.435C449.906 282.785 439.733 284.559 426.961 286.899C422.503 287.715 412.039 289.577 403.709 291.036C395.378 292.495 387.916 293.923 387.126 294.21C384.239 295.257 382.295 297.946 378.002 306.83C372.815 317.565 365.864 328.815 358.022 339.169C350.417 349.209 334.471 367.432 330.997 370.053C329.461 371.212 326.546 373.653 324.52 375.476C320.234 379.332 310.474 385.886 304.264 389.079C301.885 390.302 299.728 391.648 299.472 392.071C299.216 392.492 298.346 392.838 297.539 392.838C296.732 392.838 295.056 393.373 293.815 394.027C288.521 396.815 276.355 399.421 265.929 400.001C253.166 400.71 239.612 398.952 228.602 395.16C224.894 393.883 221.334 392.838 220.69 392.838C220.046 392.838 215.783 391.02 211.217 388.799C206.652 386.577 199.766 383.247 195.915 381.398C179.97 373.744 147.429 349.384 143.921 342.475C143.315 341.281 141.968 340.097 140.908 339.826C137.801 339.032 127.982 340.117 112.635 342.949C104.731 344.408 96.4399 345.898 94.2105 346.259C91.9811 346.621 85.1824 347.813 79.1022 348.908C73.0221 350.003 65.2284 351.371 61.783 351.949C58.3376 352.527 52.3694 353.541 48.5209 354.203C42.0236 355.32 38.9363 356.718 38.9363 358.54C38.9363 359.841 43.5167 365.802 49.6559 372.491C52.9163 376.044 56.5644 380.279 57.7627 381.903C58.9604 383.526 62.7971 387.411 66.289 390.535C69.7801 393.659 76.2641 399.593 80.6963 403.722C92.0076 414.256 92.8294 414.959 102.317 422.201C127.733 441.6 148.963 455.593 169.383 466.407C178.909 471.451 187.034 475.842 187.44 476.164C187.845 476.487 191.049 477.779 194.559 479.035C198.069 480.292 202.969 482.363 205.448 483.637C207.927 484.912 211.979 486.483 214.454 487.129C216.928 487.774 220.475 488.967 222.336 489.78C224.197 490.592 228.122 491.725 231.057 492.297C233.992 492.869 237.058 493.699 237.87 494.142C239.273 494.906 243.729 495.838 257.822 498.311C267.043 499.93 286.034 500.498 298.078 499.516C323.663 497.428 350.802 487.757 372.056 473.154C374.285 471.622 377.436 469.673 379.057 468.822C380.678 467.972 383.332 465.876 384.953 464.164C386.574 462.452 389.559 460.077 391.586 458.886C393.613 457.695 397.758 454.128 400.798 450.961C403.838 447.794 407.789 443.976 409.577 442.477C413.615 439.092 432.031 417.387 442.002 404.26C450.483 393.094 461.631 375.673 468.767 362.438C471.438 357.484 474.811 351.429 476.264 348.983C477.716 346.537 480.118 341.302 481.601 337.348C483.085 333.396 485.397 328.124 486.741 325.634C488.084 323.145 489.714 318.776 490.363 315.927C491.012 313.077 492.313 308.866 493.255 306.567C494.196 304.269 495.197 300.868 495.478 299.011C495.759 297.153 496.432 293.944 496.974 291.88C499.938 280.589 500.595 276.396 499.508 275.696C497.754 274.566 491.564 275.007 482.604 276.899Z" fill="#54C0A9"/>
<rect x="181.175" y="177.411" width="137.08" height="145.619" rx="68.54" fill="#54C0A9"/>
</svg>
