<svg width="1083" height="364" viewBox="0 0 1083 364" fill="none" xmlns="http://www.w3.org/2000/svg">
<path d="M90.9 299.2C76.5 299.2 63.4 296.2 51.6 290.2C40 284.2 30.8 275.5 24 264.1C17.2 252.7 13.8 238.9 13.8 222.7V218.5C13.8 202.3 17.2 188.5 24 177.1C30.8 165.7 40 157 51.6 151C63.4 145 76.5 142 90.9 142C105.1 142 117.3 144.5 127.5 149.5C137.7 154.5 145.9 161.4 152.1 170.2C158.5 178.8 162.7 188.6 164.7 199.6L128.1 207.4C127.3 201.4 125.5 196 122.7 191.2C119.9 186.4 115.9 182.6 110.7 179.8C105.7 177 99.4 175.6 91.8 175.6C84.2 175.6 77.3 177.3 71.1 180.7C65.1 183.9 60.3 188.8 56.7 195.4C53.3 201.8 51.6 209.7 51.6 219.1V222.1C51.6 231.5 53.3 239.5 56.7 246.1C60.3 252.5 65.1 257.4 71.1 260.8C77.3 264 84.2 265.6 91.8 265.6C103.2 265.6 111.8 262.7 117.6 256.9C123.6 250.9 127.4 243.1 129 233.5L165.6 242.2C163 252.8 158.5 262.5 152.1 271.3C145.9 279.9 137.7 286.7 127.5 291.7C117.3 296.7 105.1 299.2 90.9 299.2ZM183.281 295V146.2H220.481V163H225.881C228.081 157 231.681 152.6 236.681 149.8C241.881 147 247.881 145.6 254.681 145.6H272.681V179.2H254.081C244.481 179.2 236.581 181.8 230.381 187C224.181 192 221.081 199.8 221.081 210.4V295H183.281ZM351.253 299.2C336.453 299.2 323.353 296.1 311.953 289.9C300.753 283.5 291.953 274.6 285.553 263.2C279.353 251.6 276.253 238 276.253 222.4V218.8C276.253 203.2 279.353 189.7 285.553 178.3C291.753 166.7 300.453 157.8 311.653 151.6C322.853 145.2 335.853 142 350.653 142C365.253 142 377.953 145.3 388.753 151.9C399.553 158.3 407.953 167.3 413.953 178.9C419.953 190.3 422.953 203.6 422.953 218.8V231.7H314.653C315.053 241.9 318.853 250.2 326.053 256.6C333.253 263 342.053 266.2 352.453 266.2C363.053 266.2 370.853 263.9 375.853 259.3C380.853 254.7 384.653 249.6 387.253 244L418.153 260.2C415.353 265.4 411.253 271.1 405.853 277.3C400.653 283.3 393.653 288.5 384.853 292.9C376.053 297.1 364.853 299.2 351.253 299.2ZM314.953 203.5H384.553C383.753 194.9 380.253 188 374.053 182.8C368.053 177.6 360.153 175 350.353 175C340.153 175 332.053 177.6 326.053 182.8C320.053 188 316.353 194.9 314.953 203.5ZM489.298 299.2C478.698 299.2 469.198 297.4 460.798 293.8C452.398 290 445.698 284.6 440.698 277.6C435.898 270.4 433.498 261.7 433.498 251.5C433.498 241.3 435.898 232.8 440.698 226C445.698 219 452.498 213.8 461.098 210.4C469.898 206.8 479.898 205 491.098 205H531.898V196.6C531.898 189.6 529.698 183.9 525.298 179.5C520.898 174.9 513.898 172.6 504.298 172.6C494.898 172.6 487.898 174.8 483.298 179.2C478.698 183.4 475.698 188.9 474.298 195.7L439.498 184C441.898 176.4 445.698 169.5 450.898 163.3C456.298 156.9 463.398 151.8 472.198 148C481.198 144 492.098 142 504.898 142C524.498 142 539.998 146.9 551.398 156.7C562.798 166.5 568.498 180.7 568.498 199.3V254.8C568.498 260.8 571.298 263.8 576.898 263.8H588.898V295H563.698C556.298 295 550.198 293.2 545.398 289.6C540.598 286 538.198 281.2 538.198 275.2V274.9H532.498C531.698 277.3 529.898 280.5 527.098 284.5C524.298 288.3 519.898 291.7 513.898 294.7C507.898 297.7 499.698 299.2 489.298 299.2ZM495.898 268.6C506.498 268.6 515.098 265.7 521.698 259.9C528.498 253.9 531.898 246 531.898 236.2V233.2H493.798C486.798 233.2 481.298 234.7 477.298 237.7C473.298 240.7 471.298 244.9 471.298 250.3C471.298 255.7 473.398 260.1 477.598 263.5C481.798 266.9 487.898 268.6 495.898 268.6ZM660.105 299.2C648.305 299.2 637.205 296.3 626.805 290.5C616.605 284.5 608.405 275.8 602.205 264.4C596.005 253 592.905 239.2 592.905 223V218.2C592.905 202 596.005 188.2 602.205 176.8C608.405 165.4 616.605 156.8 626.805 151C637.005 145 648.105 142 660.105 142C669.105 142 676.605 143.1 682.605 145.3C688.805 147.3 693.805 149.9 697.605 153.1C701.405 156.3 704.305 159.7 706.305 163.3H711.705V85H749.505V295H712.305V277H706.905C703.505 282.6 698.205 287.7 691.005 292.3C684.005 296.9 673.705 299.2 660.105 299.2ZM671.505 266.2C683.105 266.2 692.805 262.5 700.605 255.1C708.405 247.5 712.305 236.5 712.305 222.1V219.1C712.305 204.7 708.405 193.8 700.605 186.4C693.005 178.8 683.305 175 671.505 175C659.905 175 650.205 178.8 642.405 186.4C634.605 193.8 630.705 204.7 630.705 219.1V222.1C630.705 236.5 634.605 247.5 642.405 255.1C650.205 262.5 659.905 266.2 671.505 266.2Z" fill="#54C0A9"/>
<path d="M945 295V146.2H982.2V163H987.6C989.8 157 993.4 152.6 998.4 149.8C1003.6 147 1009.6 145.6 1016.4 145.6H1034.4V179.2H1015.8C1006.2 179.2 998.3 181.8 992.1 187C985.9 192 982.8 199.8 982.8 210.4V295H945Z" fill="#54C0A9"/>
<path fill-rule="evenodd" clip-rule="evenodd" d="M829.874 135.233C824.985 135.625 820.828 136.489 817.744 137.754C817.136 138.004 816.476 138.208 816.277 138.208C815.911 138.208 815.174 138.545 812.305 140.028C811.43 140.48 810.604 140.85 810.468 140.85C810.333 140.85 809.671 141.228 808.997 141.69C808.322 142.153 807.682 142.531 807.574 142.531C807.466 142.531 806.708 143.018 805.89 143.612C805.072 144.207 804.289 144.693 804.15 144.693C804.012 144.693 803.242 145.26 802.44 145.954C801.639 146.648 800.478 147.557 799.862 147.975C799.245 148.393 798.224 149.267 797.593 149.916C796.961 150.566 795.712 151.737 794.816 152.519C793.921 153.301 792.277 155.021 791.164 156.342C790.05 157.664 788.319 159.635 787.316 160.724C783.479 164.892 777.78 173.19 774.736 179.041C773.809 180.825 772.446 183.438 771.709 184.849C770.971 186.26 770.122 188.151 769.821 189.052C769.519 189.953 768.996 191.248 768.657 191.93C768.317 192.611 767.826 193.981 767.565 194.974C767.304 195.967 766.886 197.307 766.636 197.952C766.386 198.598 766.104 199.66 766.008 200.313C765.913 200.965 765.638 202.084 765.398 202.798C764.822 204.508 764.837 204.632 765.671 204.984C766.258 205.231 766.738 205.212 768.442 204.87C769.575 204.643 771.155 204.364 771.953 204.251C772.75 204.138 774.236 203.888 775.254 203.695C776.273 203.502 778.167 203.16 779.464 202.935C780.761 202.71 782.619 202.367 783.591 202.173C784.564 201.978 785.944 201.731 786.657 201.623C790.32 201.071 800.497 199.188 801.561 198.866C802.867 198.471 803.873 197.691 803.874 197.074C803.874 195.875 807.791 189.413 810.801 185.646C813.082 182.791 818.58 176.858 819.724 176.016C820.41 175.512 821.494 174.628 822.133 174.053C822.771 173.478 823.672 172.847 824.134 172.65C824.596 172.453 825.188 172.095 825.449 171.853C826.412 170.963 831.329 168.754 833.589 168.197C837.323 167.276 838.101 167.178 841.607 167.184C845.586 167.192 848.857 167.704 852.188 168.841C853.143 169.167 854.043 169.433 854.188 169.433C854.446 169.433 858.01 171.091 862.243 173.179C866.516 175.287 876.578 182.557 877.273 184.038C877.551 184.631 877.707 184.691 879.125 184.756C880.056 184.798 882.029 184.578 884.075 184.204C885.946 183.861 888.061 183.486 888.775 183.37C889.488 183.254 891.664 182.874 893.609 182.525C895.555 182.176 898.062 181.737 899.182 181.55C900.301 181.363 901.362 181.156 901.54 181.089C901.718 181.023 902.553 180.865 903.396 180.74C908.626 179.961 911.179 179.222 911.179 178.487C911.179 178.345 910.197 177.18 908.998 175.897C907.798 174.614 906.179 172.879 905.401 172.04C903.327 169.804 895.577 162.732 893.255 160.956C888.251 157.129 880.33 151.509 877.133 149.518C874.072 147.611 862.555 141.57 861.981 141.57C861.763 141.57 860.563 141.093 859.314 140.51C858.065 139.927 856.36 139.27 855.526 139.049C854.692 138.829 853.74 138.51 853.409 138.339C853.079 138.168 852.067 137.846 851.159 137.622C850.251 137.399 849.083 137.063 848.564 136.875C848.046 136.687 846.931 136.418 846.088 136.277C845.245 136.136 843.971 135.922 843.258 135.801C841.956 135.581 837.765 135.174 835.122 135.012C834.343 134.964 831.982 135.063 829.874 135.233ZM919.433 223.608C917.942 223.923 916.463 224.184 916.148 224.189C915.833 224.194 915.25 224.302 914.851 224.429C914.453 224.556 913.013 224.84 911.651 225.059C908.97 225.491 905.714 226.059 901.628 226.808C900.201 227.069 896.852 227.665 894.187 228.132C891.521 228.599 889.133 229.055 888.88 229.147C887.957 229.482 887.334 230.343 885.961 233.186C884.301 236.621 882.077 240.221 879.567 243.534C877.133 246.747 872.031 252.578 870.919 253.417C870.428 253.788 869.495 254.569 868.846 255.152C867.475 256.386 864.352 258.484 862.364 259.505C861.603 259.897 860.913 260.327 860.831 260.463C860.749 260.598 860.471 260.708 860.213 260.708C859.954 260.708 859.418 260.879 859.021 261.089C857.327 261.981 853.434 262.815 850.097 263C846.013 263.227 841.676 262.665 838.153 261.451C836.966 261.042 835.827 260.708 835.621 260.708C835.415 260.708 834.05 260.126 832.589 259.416C831.129 258.705 828.925 257.639 827.693 257.047C822.59 254.598 812.177 246.803 811.055 244.592C810.861 244.21 810.43 243.831 810.09 243.744C809.096 243.49 805.954 243.837 801.043 244.744C798.514 245.211 795.861 245.687 795.147 245.803C794.434 245.919 792.258 246.3 790.313 246.651C788.367 247.001 785.873 247.439 784.771 247.624C783.668 247.809 781.758 248.133 780.527 248.345C778.448 248.703 777.46 249.15 777.46 249.733C777.46 250.149 778.925 252.057 780.89 254.197C781.933 255.334 783.101 256.689 783.484 257.209C783.867 257.728 785.095 258.971 786.212 259.971C787.33 260.971 789.405 262.87 790.823 264.191C794.442 267.562 794.705 267.787 797.742 270.104C805.875 276.312 812.668 280.79 819.203 284.25C822.251 285.864 824.851 287.27 824.981 287.373C825.11 287.476 826.136 287.889 827.259 288.291C828.382 288.693 829.95 289.356 830.743 289.764C831.537 290.172 832.833 290.675 833.625 290.881C834.417 291.088 835.552 291.47 836.148 291.729C836.743 291.989 837.999 292.352 838.938 292.535C839.878 292.718 840.858 292.984 841.118 293.125C841.567 293.37 842.993 293.668 847.503 294.46C850.454 294.978 856.531 295.16 860.385 294.845C868.572 294.177 877.257 291.082 884.058 286.409C884.771 285.919 885.779 285.295 886.298 285.023C886.817 284.751 887.666 284.08 888.185 283.533C888.704 282.985 889.659 282.225 890.307 281.843C890.956 281.462 892.283 280.321 893.255 279.307C894.228 278.294 895.492 277.072 896.065 276.592C897.357 275.509 903.25 268.564 906.441 264.363C909.155 260.79 912.722 255.215 915.005 250.98C915.86 249.395 916.94 247.457 917.404 246.675C917.869 245.892 918.638 244.217 919.112 242.951C919.587 241.687 920.327 240 920.757 239.203C921.187 238.406 921.708 237.008 921.916 236.097C922.124 235.185 922.54 233.837 922.842 233.101C923.143 232.366 923.463 231.278 923.553 230.683C923.643 230.089 923.858 229.062 924.032 228.402C924.98 224.789 925.19 223.447 924.842 223.223C924.281 222.861 922.301 223.002 919.433 223.608Z" fill="#54C0A9"/>
<rect x="822.977" y="191.771" width="43.8656" height="46.5982" rx="21.9328" fill="#54C0A9"/>
</svg>
